<?xml version="1.0" encoding="utf-8"?>
<!-- Generator: Adobe Illustrator 18.0.0, SVG Export Plug-In . SVG Version: 6.00 Build 0)  -->
<!DOCTYPE svg PUBLIC "-//W3C//DTD SVG 1.1//EN" "http://www.w3.org/Graphics/SVG/1.1/DTD/svg11.dtd">
<svg version="1.1" id="Calque_1" xmlns="http://www.w3.org/2000/svg" xmlns:xlink="http://www.w3.org/1999/xlink" x="0px" y="0px"
	 width="959.6px" height="293px" viewBox="0 0 959.6 293" enable-background="new 0 0 959.6 293" xml:space="preserve">
<g>
	<g>
		<g>
			<path fill-rule="evenodd" clip-rule="evenodd" fill="#4A6BAF" d="M97.5,2h11.9c41.9,4,70.3,24.9,85.8,55.4
				c5.4,10.6,8.7,23.2,9.9,36.8v11.8c-1.9,26.8-14.7,49.8-30.2,63.8c-16.4,14.8-36.8,26.8-65,28.5H97.2c-27-1.8-50.8-14.2-65.5-28.7
				C15.9,153.9,4.1,133.1,2,106.1V94.2c1.6-27.3,15.4-49.3,30.2-64C48,14.5,70.5,4.3,97.5,2 M193.2,85.7
				c-2.8-15.3-9.5-28.2-17.3-38.1c-16.5-20.7-40.7-34.7-74.9-34.8c-30.6,0-55.8,16.2-70.8,36C23,58.3,16.5,71.1,13.9,85.7
				c-2.6,14.8-0.8,32,4.8,45.9h28.4c1.2-15.4-0.7-30.9,0.3-45.1C48.5,71.3,59.1,62,73.6,61c7.8-0.6,14.5,1.4,19.3,4.8
				c15.5,11.1,14.5,38.1-1,47.1c-8.3,4.8-22.4,3.9-30.5-0.5c-0.9-0.5-1.9-1.8-3-1.3c-0.6,12.8,2.8,25.8-6.3,30
				c-6.7,3.1-19.5,0.5-27.9,1c15,24.7,40.1,45.2,78.7,45.4c19.5,0.1,35.5-5.1,48.7-13.1c11.9-7.1,22.7-17.1,29.7-28.7
				c0.3-0.5,1.1-1.5,0.8-2.3c-16.9-2.2-42.3,6-46.7-8.3c-1.9-6.1,0.4-15.4-0.5-23.4c-12.4-2.9-21.8-12-22.6-25.7
				c-0.6-11.3,5.6-20.1,14-24.9c1.7,3.2,3.6,6.1,5.3,9.3c-2.6,1.6-4.7,3.2-6.1,5.5c-7.2,12,2.5,25.5,14.5,25.5
				c12.9,0,20.9-14.3,14.5-25.2c-1.2-2.1-3.3-3.5-5.3-5.8c2.3-2.6,3.7-6.1,6.1-8.6c7.2,5.5,13.4,13.4,12.2,26
				c-1.2,12.7-10.8,21-21.8,23.7c0.2,6.8-0.3,14.3,0.3,20.7c13.1,1.1,28.4,0.2,42.4,0.5C193.5,118.5,196,101.4,193.2,85.7 M91.1,99
				c6.9-11.5-0.6-26.6-13.5-27.2c-13.4-0.7-21,7-19.3,22.7C63.2,106.4,84.6,109.8,91.1,99"/>
			<path fill="#4A6BAF" d="M110,200.3l-12.9,0c-25-1.7-50-12.6-66.8-29.3C12.1,153,1.9,131.2,0,106.2l0-0.2l0-12
				C1.9,62,20.1,39.4,30.8,28.8C47.4,12.3,70.4,2.3,97.3,0l0.2,0l12.1,0C150,3.8,180.2,23.4,197,56.5c5.5,10.8,8.9,23.4,10.1,37.5
				l0,0.2l0,12c-1.7,24.9-13.3,49.2-30.9,65.1C155.9,189.6,134.9,198.8,110,200.3L110,200.3z M97.3,196.3h12.6
				c23.9-1.4,44.1-10.3,63.7-28c16.8-15.2,27.9-38.5,29.5-62.3V94.3c-1.2-13.6-4.5-25.7-9.7-36C177.3,26.5,148.2,7.7,109.3,4H97.5
				c-25.9,2.3-48,11.8-63.9,27.6C23.3,41.9,5.8,63.6,4,94.3V106c1.9,23.9,11.7,44.8,29.1,62.2C49.2,184.1,73.2,194.7,97.3,196.3z
				 M103.3,189.5l-0.5,0c-43.4-0.2-67.7-25.3-80.4-46.3l-1.7-2.8l3.3-0.2c0.8,0,1.6-0.1,2.6-0.1c2.4,0,4.9,0.1,7.5,0.3
				c2.6,0.1,5.4,0.3,7.9,0.3c4.2,0,7.2-0.4,9.2-1.4c5.4-2.5,5.5-8.7,5.2-18.7c-0.1-3.1-0.2-6.3,0-9.5l0.1-1.2l1.1-0.5
				c0.4-0.2,0.9-0.3,1.4-0.3c1.3,0,2.3,0.7,3,1.3c0.2,0.1,0.4,0.3,0.5,0.3c4,2.2,9.8,3.5,15.5,3.5c5.1,0,9.7-1,13-2.9
				c6.5-3.8,10.7-11.4,11.1-20.4c0.5-9.5-3.5-18.5-10.3-23.3c-4.7-3.4-11-4.9-18-4.4c-14.1,1-23.4,10-24.3,23.6
				c-0.5,6.7-0.3,13.6-0.1,20.9c0.2,7.9,0.4,16-0.2,24.2l-0.1,1.8H17.4l-0.5-1.3c-5.7-14.2-7.6-31.7-4.9-47
				c2.3-13.2,8.2-26.6,16.6-37.7c17.5-23.1,44.5-36.8,72.3-36.8c32.1,0,57.8,12,76.5,35.5c6.2,7.8,14.4,21,17.7,38.9
				c2.7,15,0.9,32.5-5.2,48l-0.5,1.3l-1.4,0c-2,0-4.1-0.1-6.6-0.1c-3.2,0-6.3,0-9.5,0.1c-3.2,0-6.4,0.1-9.6,0.1
				c-7,0-12.2-0.2-16.8-0.6l-1.7-0.1l-0.2-1.7c-0.4-4.1-0.3-8.6-0.3-12.9c0-2.6,0.1-5.3,0-7.9l0-1.6l1.6-0.4
				c9-2.2,19.1-9.1,20.3-21.9c0.9-9.2-2.3-16.6-9.9-23c-0.6,0.9-1.2,1.8-1.8,2.8c-0.6,1-1.2,1.9-1.9,2.9c0.3,0.3,0.7,0.7,1,1
				c1.3,1.2,2.5,2.4,3.4,3.9c3.4,5.8,3.4,12.8,0,18.7c-3.4,6-9.5,9.5-16.2,9.5c-6.8,0-13.1-3.8-16.6-9.8c-3.3-5.9-3.2-12.7,0.4-18.6
				c1.4-2.3,3.2-3.9,5.1-5.2c-0.5-0.9-1-1.7-1.5-2.6c-0.6-1.1-1.3-2.1-1.9-3.3c-7.6,5.2-11.7,13.1-11.2,22
				c0.7,12,8.5,20.9,21.1,23.9l1.4,0.3l0.2,1.4c0.4,3.6,0.2,7.5,0,11.2c-0.3,4.5-0.5,8.8,0.5,11.9c1.6,5.2,6.5,7.3,16.9,7.3
				c3.2,0,6.5-0.2,10-0.4c3.5-0.2,7.1-0.4,10.6-0.4c2.9,0,5.4,0.1,7.6,0.4l1.1,0.1l0.4,1.1c0.7,1.6-0.3,3.1-0.8,3.9l-0.1,0.2
				c-6.8,11.2-17.5,21.7-30.4,29.4C137.8,185,121.2,189.5,103.3,189.5z M27.7,144.1c12.7,19.5,35.6,41.2,75.1,41.4l0.5,0
				c17.2,0,33.1-4.3,47.2-12.8c12.1-7.3,22.3-17,28.7-27.5c-1.4-0.1-2.9-0.1-4.5-0.1c-3.3,0-6.9,0.2-10.4,0.4
				c-3.4,0.2-6.9,0.4-10.2,0.4c-8.2,0-18-1.1-20.7-10.1c-1.2-3.8-0.9-8.4-0.6-13.3c0.2-3.1,0.3-6.2,0.2-9.1
				c-13.3-3.7-22-14-22.7-27.2c-0.6-11,5-21,15-26.8l1.8-1.1l1,1.9c0.9,1.7,1.9,3.3,2.8,4.9c0.8,1.4,1.7,2.8,2.5,4.3l0.9,1.7l-1.6,1
				c-2.4,1.4-4.2,2.8-5.4,4.9c-2.8,4.7-2.9,10-0.3,14.6c2.7,4.7,7.8,7.8,13.1,7.8c5.3,0,10.1-2.8,12.8-7.5c2.7-4.7,2.7-10.2,0-14.7
				c-0.6-1.1-1.6-2-2.7-3.1c-0.7-0.7-1.6-1.5-2.4-2.4l-1.2-1.3l1.2-1.3c1-1.1,1.8-2.4,2.6-3.8c1-1.7,2.1-3.4,3.5-4.9l1.2-1.3
				l1.4,1.1c9.8,7.5,14.1,16.6,13,27.7c-1.2,11.9-9.5,21.4-21.8,25c0,2.1,0,4.3,0,6.5c0,3.6-0.1,7.4,0.1,10.8
				c4.1,0.3,8.8,0.4,14.8,0.4c3.2,0,6.3,0,9.5-0.1c3.2,0,6.4-0.1,9.6-0.1c1.9,0,3.6,0,5.3,0c5.4-14.5,7-30.6,4.5-44.5
				c-3.1-17.2-10.9-29.7-16.9-37.2c-18-22.5-42.6-34-73.3-34c-26.6,0-52.5,13.2-69.2,35.2C23.7,60.7,18.1,73.4,15.9,86
				c-2.4,14.1-0.9,30.2,4.2,43.5h25.2c0.5-7.3,0.2-14.7,0-21.9c-0.2-7.4-0.4-14.4,0.1-21.3c1.1-15.7,11.8-26.2,28-27.3
				c0.9-0.1,1.9-0.1,2.8-0.1c6.9,0,13,1.8,17.8,5.3c8,5.7,12.4,15.8,11.9,26.8c-0.5,10.4-5.4,19.2-13.1,23.7
				c-4.9,2.9-10.9,3.5-15,3.5c-6.4,0-12.8-1.4-17.4-4c-0.1,0-0.1-0.1-0.2-0.1c0,2.2,0,4.3,0.1,6.4c0.3,9.7,0.5,18.8-7.5,22.5
				c-2.6,1.2-6,1.7-10.8,1.7c-2.7,0-5.4-0.2-8.1-0.3C31.7,144.2,29.6,144.1,27.7,144.1z M77.6,107.5
				C77.6,107.5,77.6,107.5,77.6,107.5c-7.8,0-17.7-3.8-21.1-12.3L56.4,95l0-0.3C55.5,86.4,57,80,60.9,75.6c3.7-4.2,9.6-6.2,16.9-5.8
				c6.5,0.3,12.3,4.1,15.5,10.1c3.4,6.4,3.2,13.9-0.5,20.1C90,104.8,84.4,107.5,77.6,107.5z M60.3,94c2.7,6.3,10.7,9.5,17.3,9.5
				c5.4,0,9.7-2,11.8-5.5c3-5,3.1-11,0.4-16.2c-2.5-4.8-7.1-7.8-12.2-8c-6.1-0.3-10.8,1.2-13.7,4.5C60.8,81.7,59.6,87,60.3,94z"/>
		</g>
	</g>
	<g>
		<g>
			<path fill="#4A6BAF" d="M258.1,65.4h0.4c3.6-4.5,8.1-8,13.4-10.4c5.3-2.4,11.1-3.6,17.7-3.6c7.8,0,14.7,1.5,20.8,4.4
				c6,2.9,11.1,6.7,15.3,11.4c4.2,4.7,7.3,10,9.6,15.9c2.2,5.9,3.3,11.9,3.3,18c0,5.9-1.2,11.7-3.5,17.6c-2.3,5.9-5.7,11.2-9.9,16
				c-4.3,4.8-9.5,8.7-15.7,11.7c-6.2,3-13.1,4.5-20.8,4.5c-7,0-13.1-1.3-18.3-4c-5.2-2.7-9.1-6-11.7-10h-0.4v44.1h-20.3v-127h20.3
				V65.4z M317,101.1c0-4.3-0.8-8.3-2.4-12c-1.6-3.7-3.8-6.9-6.5-9.7c-2.7-2.7-5.9-4.9-9.6-6.5c-3.6-1.6-7.5-2.4-11.5-2.4
				c-4,0-7.8,0.8-11.4,2.4c-3.6,1.6-6.7,3.8-9.5,6.5c-2.7,2.7-4.9,5.9-6.4,9.7c-1.6,3.7-2.3,7.7-2.3,12c0,4.3,0.8,8.3,2.3,12
				c1.6,3.7,3.7,6.9,6.4,9.7c2.7,2.7,5.9,4.9,9.5,6.5c3.6,1.6,7.4,2.4,11.4,2.4c4,0,7.9-0.8,11.5-2.4c3.6-1.6,6.8-3.8,9.6-6.5
				c2.7-2.7,4.9-6,6.5-9.7C316.2,109.4,317,105.4,317,101.1"/>
		</g>
		<g>
			<path fill="#FF7000" d="M357.2,53.9h20.3v55.4c0,7.9,2.1,13.7,6.4,17.2c4.3,3.5,9.6,5.3,15.8,5.3c7.9,0,13.8-2.2,17.7-6.6
				c3.8-4.4,5.8-10.3,5.8-17.8V53.9h20.3v91.5c0,7.3-1.4,13.5-4.3,18.7c-2.9,5.2-6.4,9.5-10.7,12.9c-4.3,3.4-8.9,5.9-13.9,7.5
				c-5,1.6-9.7,2.4-14.1,2.4c-5.3,0-10-0.5-13.9-1.4c-4-0.9-7.5-2.2-10.6-3.9c-3.1-1.7-5.9-3.7-8.3-6c-2.4-2.3-4.8-4.7-7.1-7.3
				l17.2-10.5c3.2,3.1,6.6,5.6,9.9,7.3c3.4,1.8,7.3,2.6,11.7,2.6c3.4,0,6.6-0.5,9.7-1.6c3.1-1,5.7-2.6,8-4.6c2.3-2,4.1-4.6,5.5-7.7
				c1.4-3.1,2-6.8,2-10.9V138h-0.4c-4,4.6-8.2,7.8-12.4,9.9c-4.2,2-9.6,3-16.1,3c-5.3,0-10.3-1-14.9-2.9c-4.6-2-8.6-4.7-12.1-8.3
				c-3.4-3.6-6.2-8-8.2-13.3c-2-5.3-3-11.2-3-17.9V53.9z"/>
		</g>
		<g>
			<polygon fill="#4A6BAF" points="492.4,102.1 459.1,53.9 484.4,53.9 504.1,86.3 523.4,53.9 547.2,53.9 514.1,100.9 548.6,148.3 
				522.8,148.3 502.9,116.7 482.1,148.3 458.1,148.3 			"/>
		</g>
		<g>
			<path fill="#4A6BAF" d="M562.4,34.6c0-3.1,1.1-5.8,3.3-8c2.2-2.2,4.9-3.3,8-3.3s5.8,1.1,8,3.3c2.2,2.2,3.3,4.9,3.3,8
				s-1.1,5.8-3.3,8c-2.2,2.2-4.9,3.3-8,3.3s-5.8-1.1-8-3.3C563.6,40.4,562.4,37.7,562.4,34.6 M563.6,53.9h20.3v94.4h-20.3V53.9z"/>
		</g>
		<g>
			<path fill="#4A6BAF" d="M679.7,84.7c-2.7-4.2-6-7.6-9.9-10.2c-3.9-2.7-8.8-4-14.6-4c-4.4,0-8.5,0.8-12.3,2.4
				c-3.8,1.6-7,3.8-9.8,6.5c-2.7,2.7-4.8,5.9-6.3,9.7c-1.5,3.7-2.2,7.7-2.2,12s0.7,8.3,2.2,12c1.5,3.7,3.6,6.9,6.3,9.7
				c2.7,2.7,6,4.9,9.8,6.5c3.8,1.6,7.9,2.4,12.3,2.4c5.6,0,10.4-1.3,14.4-3.9c4-2.6,7.4-6,10.1-10.3l17.8,10.5
				c-2.1,3.4-4.6,6.4-7.6,9.2c-3,2.7-6.3,5.1-9.9,7.2c-3.6,2.1-7.6,3.7-11.8,4.8c-4.2,1.1-8.6,1.7-13,1.7c-8.2,0-15.5-1.4-22-4.3
				c-6.5-2.9-12-6.6-16.4-11.2c-4.4-4.6-7.8-9.9-10.1-15.9c-2.3-6-3.5-12.1-3.5-18.3s1.2-12.4,3.5-18.3c2.3-6,5.7-11.3,10.1-15.9
				c4.4-4.6,9.9-8.4,16.4-11.2c6.5-2.9,13.9-4.3,22-4.3c10,0,18.4,2.1,25.3,6.4c6.8,4.3,12.5,9.8,17.1,16.4L679.7,84.7z"/>
		</g>
		<g>
			<path fill="#4A6BAF" d="M707.8,101.1c0-6.2,1.2-12.4,3.5-18.3c2.3-6,5.7-11.3,10.1-15.9c4.4-4.6,9.9-8.4,16.4-11.2
				c6.5-2.9,13.9-4.3,22-4.3c8.2,0,15.5,1.4,22,4.3c6.5,2.9,12,6.6,16.4,11.2c4.4,4.6,7.8,9.9,10.1,15.9c2.3,6,3.5,12.1,3.5,18.3
				s-1.2,12.4-3.5,18.3c-2.3,6-5.7,11.3-10.1,15.9c-4.4,4.6-9.9,8.4-16.4,11.2c-6.5,2.9-13.9,4.3-22,4.3c-8.2,0-15.5-1.4-22-4.3
				c-6.5-2.9-12-6.6-16.4-11.2c-4.4-4.6-7.8-9.9-10.1-15.9C708.9,113.5,707.8,107.4,707.8,101.1 M729.2,101.1c0,4.3,0.7,8.3,2.2,12
				c1.5,3.7,3.6,6.9,6.3,9.7c2.7,2.7,6,4.9,9.8,6.5c3.8,1.6,7.9,2.4,12.3,2.4c4.4,0,8.5-0.8,12.3-2.4c3.8-1.6,7-3.8,9.8-6.5
				c2.7-2.7,4.8-6,6.3-9.7c1.5-3.7,2.2-7.7,2.2-12c0-4.3-0.8-8.3-2.2-12c-1.5-3.7-3.6-6.9-6.3-9.7c-2.7-2.7-6-4.9-9.8-6.5
				c-3.8-1.6-7.9-2.4-12.3-2.4c-4.4,0-8.5,0.8-12.3,2.4c-3.8,1.6-7,3.8-9.8,6.5c-2.7,2.7-4.8,5.9-6.3,9.7
				C730,92.8,729.2,96.8,729.2,101.1"/>
		</g>
		<g>
			<path fill="#4A6BAF" d="M830.7,89.2c0-6,0.9-11.3,2.8-16c1.9-4.7,4.4-8.6,7.5-11.9c3.1-3.2,6.8-5.7,10.9-7.4
				c4.2-1.7,8.6-2.5,13.3-2.5c7.2,0,13.2,1.6,18.1,4.7c4.9,3.1,8.3,7.2,10.1,12.1h0.4c1.8-4.9,5.2-9,10.1-12.1
				c4.9-3.1,11-4.7,18.1-4.7c4.7,0,9.1,0.8,13.3,2.5c4.2,1.7,7.8,4.2,10.9,7.4c3.1,3.3,5.6,7.2,7.5,11.9c1.9,4.7,2.8,10,2.8,16v59.1
				h-20.3V89.4c0-5.7-1.6-10.1-4.7-13.2c-3.1-3.1-6.8-4.6-10.9-4.6c-4.9,0-9,1.6-12.2,4.7c-3.2,3.1-4.8,8.4-4.8,15.8v56.2h-20.3
				V92.2c0-7.4-1.6-12.7-4.8-15.8c-3.2-3.1-7.3-4.7-12.2-4.7c-4.2,0-7.8,1.5-10.9,4.6c-3.1,3.1-4.7,7.4-4.7,13.2v58.9h-20.3V89.2z"
				/>
		</g>
	</g>
</g>
<g>
	<g>
		<path fill="#4A6BAF" d="M2,232.7h10.3v50h30v8.9H2V232.7z"/>
	</g>
	<g>
		<path fill="#4A6BAF" d="M49.4,232.7h42.4v8.9H59.7V257h29.7v8.4H59.7v17.2h32.7v8.9h-43V232.7z"/>
	</g>
	<g>
		<path fill="#4A6BAF" d="M124.3,232.7h24.4c4.4,0,8.3,0.8,11.6,2.3c3.3,1.5,6,3.6,8.2,6.3c2.1,2.7,3.7,5.8,4.7,9.4
			c1,3.6,1.5,7.4,1.5,11.6c0,4.1-0.5,8-1.5,11.6c-1,3.6-2.6,6.7-4.7,9.4c-2.1,2.7-4.9,4.8-8.2,6.3c-3.3,1.5-7.2,2.3-11.6,2.3h-24.4
			V232.7z M134.6,283.2h10.1c3.9,0,7.2-0.5,9.7-1.6c2.6-1,4.6-2.5,6-4.4c1.4-1.9,2.4-4.1,3-6.6c0.6-2.5,0.9-5.3,0.9-8.5
			c0-3.2-0.3-6-0.9-8.5c-0.6-2.5-1.6-4.7-3-6.6c-1.4-1.9-3.4-3.3-6-4.4c-2.6-1-5.8-1.6-9.7-1.6h-10.1V283.2z"/>
	</g>
	<g>
		<path fill="#4A6BAF" d="M183.9,232.7h10.3v58.9h-10.3V232.7z"/>
	</g>
	<g>
		<path fill="#4A6BAF" d="M258.2,291.6h-6.6l-1.6-6.9c-2.7,3.1-5.4,5.2-8.1,6.5c-2.7,1.2-5.9,1.9-9.6,1.9c-4.3,0-8.2-0.8-11.7-2.4
			c-3.5-1.6-6.5-3.8-9-6.6c-2.4-2.8-4.3-6.1-5.6-9.9c-1.3-3.7-1.9-7.7-1.9-12c0-4.2,0.6-8.2,1.9-12c1.3-3.7,3.2-7,5.6-9.9
			c2.4-2.8,5.4-5,9-6.6c3.5-1.6,7.4-2.4,11.7-2.4c6.7,0,12.4,1.7,17.1,5.2c4.7,3.5,7.4,8.5,8.2,14.9h-10.1c-0.5-3.7-2.2-6.6-5-8.6
			c-2.9-2.1-6.2-3.1-10.1-3.1c-3,0-5.7,0.6-8,1.9c-2.3,1.2-4.2,2.9-5.6,5c-1.5,2.1-2.5,4.5-3.3,7.2c-0.7,2.7-1.1,5.5-1.1,8.4
			c0,2.9,0.4,5.7,1.1,8.4c0.7,2.7,1.8,5.1,3.3,7.2c1.5,2.1,3.3,3.8,5.6,5c2.3,1.2,4.9,1.9,8,1.9c5.3,0,9.3-1.4,12.2-4.3
			c2.8-2.9,4.3-6.8,4.3-11.8h-15.7v-7.8h25.1V291.6z"/>
	</g>
	<g>
		<path fill="#4A6BAF" d="M269.4,232.7h10.3v58.9h-10.3V232.7z"/>
	</g>
	<g>
		<path fill="#4A6BAF" d="M286.8,232.7h47.7v8.9h-18.7v50h-10.3v-50h-18.6V232.7z"/>
	</g>
	<g>
		<path fill="#4A6BAF" d="M349.5,232.7h11l22.7,58.9h-11.1l-5.5-15.6H343l-5.5,15.6h-10.6L349.5,232.7z M345.8,268.2h18l-8.8-25.3
			h-0.2L345.8,268.2z"/>
	</g>
	<g>
		<path fill="#4A6BAF" d="M388.7,232.7h10.3v50h30v8.9h-40.3V232.7z"/>
	</g>
	<g>
		<path fill="#4A6BAF" d="M474.8,232.7h11l22.7,58.9h-11.1l-5.5-15.6h-23.5l-5.5,15.6h-10.6L474.8,232.7z M471.2,268.2h18l-8.8-25.3
			h-0.2L471.2,268.2z"/>
	</g>
	<g>
		<path fill="#4A6BAF" d="M513.4,232.7h10.3V267c0,2.6,0.1,4.8,0.4,6.6c0.2,1.8,0.8,3.5,1.7,5.1c0.9,1.6,2.3,2.9,4.2,3.9
			c1.9,1,4.5,1.5,7.6,1.5c3.1,0,5.7-0.5,7.6-1.5c1.9-1,3.3-2.3,4.2-3.9c0.9-1.6,1.4-3.3,1.7-5.1c0.2-1.8,0.4-4,0.4-6.6v-34.3h10.3
			v37.7c0,7.4-2.2,13-6.5,16.8c-4.3,3.9-10.2,5.8-17.7,5.8c-7.5,0-13.4-1.9-17.7-5.8c-4.3-3.9-6.5-9.5-6.5-16.8V232.7z"/>
	</g>
	<g>
		<path fill="#4A6BAF" d="M568,232.7h47.7v8.9H597v50h-10.3v-50H568V232.7z"/>
	</g>
	<g>
		<path fill="#4A6BAF" d="M622.6,232.7h28.1c6.4,0,11.2,1.4,14.5,4.2c3.3,2.8,5,6.7,5,11.8c0,2.6-0.4,4.9-1.2,6.8
			c-0.8,1.9-1.7,3.4-2.8,4.5c-1.1,1.1-2.1,1.9-3.1,2.4c-1,0.5-1.9,0.9-2.8,1.2v0.2c1,0.2,2,0.5,3,0.9c1,0.4,1.9,1.1,2.8,2.1
			c0.9,1,1.6,2.2,2.1,3.8c0.5,1.6,0.8,3.5,0.8,5.7c0,3.6,0.3,6.8,0.8,9.6c0.6,2.8,1.3,4.7,2.4,5.9h-11.1c-0.7-1.1-1.1-2.3-1.3-3.7
			c-0.2-1.3-0.3-3-0.3-5c0-5.7-0.8-9.7-2.4-12c-1.6-2.4-4.7-3.5-9.3-3.5h-15.2v24.3h-10.3V232.7z M632.9,259.5h16.9
			c6.7,0,10.1-3.1,10.1-9.4c0-1.8-0.3-3.3-0.8-4.5c-0.5-1.2-1.3-2.1-2.2-2.8c-1-0.7-2-1.1-3.2-1.4c-1.2-0.2-2.5-0.4-4-0.4h-16.7
			V259.5z"/>
	</g>
	<g>
		<path fill="#4A6BAF" d="M680.7,232.7h42.4v8.9H691V257h29.7v8.4H691v17.2h32.7v8.9h-43V232.7z"/>
	</g>
	<g>
		<path fill="#4A6BAF" d="M732.5,232.7H747l16.3,46.1h0.2l15.8-46.1h14.4v58.9h-9.8v-45.5h-0.2l-16.3,45.5h-8.5l-16.3-45.5h-0.2
			v45.5h-9.8V232.7z"/>
	</g>
	<g>
		<path fill="#4A6BAF" d="M806,232.7h42.4v8.9h-32.1V257H846v8.4h-29.7v17.2H849v8.9h-43V232.7z"/>
	</g>
	<g>
		<path fill="#4A6BAF" d="M857.6,232.7h10.9l26.9,43.4h0.2v-43.4h9.8v58.9h-10.9l-26.8-43.3h-0.2v43.3h-9.8V232.7z"/>
	</g>
	<g>
		<path fill="#4A6BAF" d="M912,232.7h47.7v8.9h-18.7v50h-10.3v-50H912V232.7z"/>
	</g>
</g>
</svg>
